<?xml version="1.0" encoding="UTF-8" standalone="no"?>
<!DOCTYPE svg PUBLIC "-//W3C//DTD SVG 1.1//EN"
 "http://www.w3.org/Graphics/SVG/1.1/DTD/svg11.dtd">
<!-- Generated by graphviz version 2.38.0 (20140413.2041)
 -->
<!-- Title: G Pages: 1 -->
<svg width="647pt" height="1478pt"
 viewBox="0.00 0.00 646.67 1478.00" xmlns="http://www.w3.org/2000/svg" xmlns:xlink="http://www.w3.org/1999/xlink">
<g id="graph0" class="graph" transform="scale(1 1) rotate(0) translate(4 1474)">
<title>G</title>
<polygon fill="white" stroke="none" points="-4,4 -4,-1474 642.669,-1474 642.669,4 -4,4"/>
<g id="clust1" class="cluster"><title>cluster_Global</title>
<path fill="none" stroke="gray" d="M93.8345,-98C93.8345,-98 618.669,-98 618.669,-98 624.669,-98 630.669,-104 630.669,-110 630.669,-110 630.669,-1450 630.669,-1450 630.669,-1456 624.669,-1462 618.669,-1462 618.669,-1462 93.8345,-1462 93.8345,-1462 87.8345,-1462 81.8345,-1456 81.8345,-1450 81.8345,-1450 81.8345,-110 81.8345,-110 81.8345,-104 87.8345,-98 93.8345,-98"/>
<text text-anchor="middle" x="356.252" y="-1449.2" font-family="Times,serif" font-size="11.00" fill="gray">Global</text>
</g>
<g id="clust2" class="cluster"><title>cluster_\Guni</title>
<path fill="none" stroke="gray" d="M101.834,-464C101.834,-464 577.169,-464 577.169,-464 583.169,-464 589.169,-470 589.169,-476 589.169,-476 589.169,-1422 589.169,-1422 589.169,-1428 583.169,-1434 577.169,-1434 577.169,-1434 101.834,-1434 101.834,-1434 95.8345,-1434 89.8345,-1428 89.8345,-1422 89.8345,-1422 89.8345,-476 89.8345,-476 89.8345,-470 95.8345,-464 101.834,-464"/>
<text text-anchor="middle" x="339.502" y="-1421.2" font-family="Times,serif" font-size="11.00" fill="gray">Guni</text>
</g>
<g id="clust3" class="cluster"><title>cluster_\Guni\Hundred</title>
<path fill="none" stroke="gray" d="M109.834,-956C109.834,-956 565.669,-956 565.669,-956 571.669,-956 577.669,-962 577.669,-968 577.669,-968 577.669,-1394 577.669,-1394 577.669,-1400 571.669,-1406 565.669,-1406 565.669,-1406 109.834,-1406 109.834,-1406 103.834,-1406 97.8345,-1400 97.8345,-1394 97.8345,-1394 97.8345,-968 97.8345,-968 97.8345,-962 103.834,-956 109.834,-956"/>
<text text-anchor="middle" x="337.752" y="-1393.2" font-family="Times,serif" font-size="11.00" fill="gray">Hundred</text>
</g>
<g id="clust4" class="cluster"><title>cluster_\Guni\Movie</title>
<path fill="none" stroke="gray" d="M459.169,-606C459.169,-606 569.169,-606 569.169,-606 575.169,-606 581.169,-612 581.169,-618 581.169,-618 581.169,-936 581.169,-936 581.169,-942 575.169,-948 569.169,-948 569.169,-948 459.169,-948 459.169,-948 453.169,-948 447.169,-942 447.169,-936 447.169,-936 447.169,-618 447.169,-618 447.169,-612 453.169,-606 459.169,-606"/>
<text text-anchor="middle" x="514.169" y="-935.2" font-family="Times,serif" font-size="11.00" fill="gray">Movie</text>
</g>
<g id="clust5" class="cluster"><title>cluster_\Guni\Guess</title>
<path fill="none" stroke="gray" d="M462.669,-472C462.669,-472 565.669,-472 565.669,-472 571.669,-472 577.669,-478 577.669,-484 577.669,-484 577.669,-586 577.669,-586 577.669,-592 571.669,-598 565.669,-598 565.669,-598 462.669,-598 462.669,-598 456.669,-598 450.669,-592 450.669,-586 450.669,-586 450.669,-484 450.669,-484 450.669,-478 456.669,-472 462.669,-472"/>
<text text-anchor="middle" x="514.169" y="-585.2" font-family="Times,serif" font-size="11.00" fill="gray">Guess</text>
</g>
<g id="clust6" class="cluster"><title>cluster_\Anax</title>
<path fill="none" stroke="gray" d="M417.669,-106C417.669,-106 610.669,-106 610.669,-106 616.669,-106 622.669,-112 622.669,-118 622.669,-118 622.669,-444 622.669,-444 622.669,-450 616.669,-456 610.669,-456 610.669,-456 417.669,-456 417.669,-456 411.669,-456 405.669,-450 405.669,-444 405.669,-444 405.669,-118 405.669,-118 405.669,-112 411.669,-106 417.669,-106"/>
<text text-anchor="middle" x="514.169" y="-443.2" font-family="Times,serif" font-size="11.00" fill="gray">Anax</text>
</g>
<g id="clust7" class="cluster"><title>cluster_\Anax\Page</title>
<path fill="none" stroke="gray" d="M491.169,-356C491.169,-356 537.169,-356 537.169,-356 543.169,-356 549.169,-362 549.169,-368 549.169,-368 549.169,-416 549.169,-416 549.169,-422 543.169,-428 537.169,-428 537.169,-428 491.169,-428 491.169,-428 485.169,-428 479.169,-422 479.169,-416 479.169,-416 479.169,-368 479.169,-368 479.169,-362 485.169,-356 491.169,-356"/>
<text text-anchor="middle" x="514.169" y="-415.2" font-family="Times,serif" font-size="11.00" fill="gray">Page</text>
</g>
<g id="clust8" class="cluster"><title>cluster_\Anax\Controller</title>
<path fill="none" stroke="gray" d="M425.669,-114C425.669,-114 602.669,-114 602.669,-114 608.669,-114 614.669,-120 614.669,-126 614.669,-126 614.669,-336 614.669,-336 614.669,-342 608.669,-348 602.669,-348 602.669,-348 425.669,-348 425.669,-348 419.669,-348 413.669,-342 413.669,-336 413.669,-336 413.669,-126 413.669,-126 413.669,-120 419.669,-114 425.669,-114"/>
<text text-anchor="middle" x="514.169" y="-335.2" font-family="Times,serif" font-size="11.00" fill="gray">Controller</text>
</g>
<!-- \\Guni\\Hundred\\Player -->
<g id="node1" class="node"><title>\\Guni\\Hundred\\Player</title>
<polygon fill="none" stroke="black" points="542.669,-1378 485.669,-1378 485.669,-1342 542.669,-1342 542.669,-1378"/>
<text text-anchor="middle" x="514.169" y="-1357.2" font-family="Courier,monospace" font-size="11.00">Player</text>
</g>
<!-- \\Guni\\Hundred\\Misc -->
<g id="node2" class="node"><title>\\Guni\\Hundred\\Misc</title>
<polygon fill="none" stroke="black" points="541.169,-1324 487.169,-1324 487.169,-1288 541.169,-1288 541.169,-1324"/>
<text text-anchor="middle" x="514.169" y="-1303.2" font-family="Courier,monospace" font-size="11.00">Misc</text>
</g>
<!-- \\Guni\\Hundred\\Histogram -->
<g id="node3" class="node"><title>\\Guni\\Hundred\\Histogram</title>
<polygon fill="none" stroke="black" points="552.669,-1270 475.669,-1270 475.669,-1234 552.669,-1234 552.669,-1270"/>
<text text-anchor="middle" x="514.169" y="-1249.2" font-family="Courier,monospace" font-size="11.00">Histogram</text>
</g>
<!-- \\Guni\\Hundred\\Hundred -->
<g id="node4" class="node"><title>\\Guni\\Hundred\\Hundred</title>
<polygon fill="none" stroke="black" points="546.169,-1216 482.169,-1216 482.169,-1180 546.169,-1180 546.169,-1216"/>
<text text-anchor="middle" x="514.169" y="-1195.2" font-family="Courier,monospace" font-size="11.00">Hundred</text>
</g>
<!-- \\Guni\\Hundred\\DiceHand -->
<g id="node5" class="node"><title>\\Guni\\Hundred\\DiceHand</title>
<polygon fill="none" stroke="black" points="549.669,-1162 478.669,-1162 478.669,-1126 549.669,-1126 549.669,-1162"/>
<text text-anchor="middle" x="514.169" y="-1141.2" font-family="Courier,monospace" font-size="11.00">DiceHand</text>
</g>
<!-- \\Guni\\Hundred\\HistogramInterface -->
<g id="node9" class="node"><title>\\Guni\\Hundred\\HistogramInterface</title>
<polygon fill="none" stroke="black" points="243.834,-1162 105.834,-1162 105.834,-1126 243.834,-1126 243.834,-1162"/>
<text text-anchor="middle" x="174.834" y="-1141.2" font-family="Courier,monospace" font-size="11.00">HistogramInterface</text>
</g>
<!-- \\Guni\\Hundred\\DiceHand&#45;&gt;\\Guni\\Hundred\\HistogramInterface -->
<g id="edge3" class="edge"><title>\\Guni\\Hundred\\DiceHand&#45;&gt;\\Guni\\Hundred\\HistogramInterface</title>
<path fill="none" stroke="black" stroke-dasharray="1,5" d="M478.654,-1144C426.237,-1144 325.179,-1144 254.271,-1144"/>
<polygon fill="none" stroke="black" points="254.038,-1140.5 244.038,-1144 254.038,-1147.5 254.038,-1140.5"/>
</g>
<!-- \\Guni\\Hundred\\DiceGraphic -->
<g id="node6" class="node"><title>\\Guni\\Hundred\\DiceGraphic</title>
<polygon fill="none" stroke="black" points="559.669,-1108 468.669,-1108 468.669,-1072 559.669,-1072 559.669,-1108"/>
<text text-anchor="middle" x="514.169" y="-1087.2" font-family="Courier,monospace" font-size="11.00">DiceGraphic</text>
</g>
<!-- \\Guni\\Hundred\\Dice -->
<g id="node8" class="node"><title>\\Guni\\Hundred\\Dice</title>
<polygon fill="none" stroke="black" points="201.834,-1108 147.834,-1108 147.834,-1072 201.834,-1072 201.834,-1108"/>
<text text-anchor="middle" x="174.834" y="-1087.2" font-family="Courier,monospace" font-size="11.00">Dice</text>
</g>
<!-- \\Guni\\Hundred\\DiceGraphic&#45;&gt;\\Guni\\Hundred\\Dice -->
<g id="edge4" class="edge"><title>\\Guni\\Hundred\\DiceGraphic&#45;&gt;\\Guni\\Hundred\\Dice</title>
<path fill="none" stroke="black" d="M468.374,-1090C400.775,-1090 274.013,-1090 211.943,-1090"/>
<polygon fill="none" stroke="black" points="211.844,-1086.5 201.844,-1090 211.844,-1093.5 211.844,-1086.5"/>
</g>
<!-- \\Guni\\Hundred\\Formview -->
<g id="node7" class="node"><title>\\Guni\\Hundred\\Formview</title>
<polygon fill="none" stroke="black" points="549.669,-1054 478.669,-1054 478.669,-1018 549.669,-1018 549.669,-1054"/>
<text text-anchor="middle" x="514.169" y="-1033.2" font-family="Courier,monospace" font-size="11.00">Formview</text>
</g>
<!-- \\Guni\\Hundred\\HistogramTrait -->
<g id="node10" class="node"><title>\\Guni\\Hundred\\HistogramTrait</title>
<polygon fill="none" stroke="black" points="569.669,-1000 458.669,-1000 458.669,-964 569.669,-964 569.669,-1000"/>
<text text-anchor="middle" x="514.169" y="-979.2" font-family="Courier,monospace" font-size="11.00">HistogramTrait</text>
</g>
<!-- \\Guni\\Movie\\Buttons -->
<g id="node11" class="node"><title>\\Guni\\Movie\\Buttons</title>
<polygon fill="none" stroke="black" points="546.169,-920 482.169,-920 482.169,-884 546.169,-884 546.169,-920"/>
<text text-anchor="middle" x="514.169" y="-899.2" font-family="Courier,monospace" font-size="11.00">Buttons</text>
</g>
<!-- \\Guni\\Movie\\Movies -->
<g id="node12" class="node"><title>\\Guni\\Movie\\Movies</title>
<polygon fill="none" stroke="black" points="542.669,-866 485.669,-866 485.669,-830 542.669,-830 542.669,-866"/>
<text text-anchor="middle" x="514.169" y="-845.2" font-family="Courier,monospace" font-size="11.00">Movies</text>
</g>
<!-- \\Guni\\Movie\\MovieDb -->
<g id="node13" class="node"><title>\\Guni\\Movie\\MovieDb</title>
<polygon fill="none" stroke="black" points="546.169,-812 482.169,-812 482.169,-776 546.169,-776 546.169,-812"/>
<text text-anchor="middle" x="514.169" y="-791.2" font-family="Courier,monospace" font-size="11.00">MovieDb</text>
</g>
<!-- \\Guni\\Movie\\MoviesExtra -->
<g id="node14" class="node"><title>\\Guni\\Movie\\MoviesExtra</title>
<polygon fill="none" stroke="black" points="559.669,-758 468.669,-758 468.669,-722 559.669,-722 559.669,-758"/>
<text text-anchor="middle" x="514.169" y="-737.2" font-family="Courier,monospace" font-size="11.00">MoviesExtra</text>
</g>
<!-- \\Guni\\Movie\\MovieController -->
<g id="node15" class="node"><title>\\Guni\\Movie\\MovieController</title>
<polygon fill="none" stroke="black" points="573.169,-704 455.169,-704 455.169,-668 573.169,-668 573.169,-704"/>
<text text-anchor="middle" x="514.169" y="-683.2" font-family="Courier,monospace" font-size="11.00">MovieController</text>
</g>
<!-- \\Anax\\Commons\\ContainerInjectableInterface -->
<g id="node24" class="node"><title>\\Anax\\Commons\\ContainerInjectableInterface</title>
<ellipse fill="none" stroke="black" cx="174.834" cy="-18" rx="174.669" ry="18"/>
<text text-anchor="middle" x="174.834" y="-14.3" font-family="Times,serif" font-size="14.00" fill="gray">\Anax\Commons\ContainerInjectableInterface</text>
</g>
<!-- \\Guni\\Movie\\MovieController&#45;&gt;\\Anax\\Commons\\ContainerInjectableInterface -->
<g id="edge9" class="edge"><title>\\Guni\\Movie\\MovieController&#45;&gt;\\Anax\\Commons\\ContainerInjectableInterface</title>
<path fill="none" stroke="black" stroke-dasharray="1,5" d="M455.161,-684.268C436.748,-680.717 417.993,-673.401 405.669,-659 316.586,-554.903 443.444,-144.891 349.669,-45 345.142,-40.1778 340.137,-35.9783 334.767,-32.3305"/>
<polygon fill="none" stroke="black" points="336.41,-29.2339 326.045,-27.0424 332.781,-35.2197 336.41,-29.2339"/>
</g>
<!-- \\Guni\\Movie\\MoviesExtraDb -->
<g id="node16" class="node"><title>\\Guni\\Movie\\MoviesExtraDb</title>
<polygon fill="none" stroke="black" points="566.169,-650 462.169,-650 462.169,-614 566.169,-614 566.169,-650"/>
<text text-anchor="middle" x="514.169" y="-629.2" font-family="Courier,monospace" font-size="11.00">MoviesExtraDb</text>
</g>
<!-- \\Guni\\Guess\\GuessException -->
<g id="node17" class="node"><title>\\Guni\\Guess\\GuessException</title>
<polygon fill="none" stroke="black" points="569.669,-570 458.669,-570 458.669,-534 569.669,-534 569.669,-570"/>
<text text-anchor="middle" x="514.169" y="-549.2" font-family="Courier,monospace" font-size="11.00">GuessException</text>
</g>
<!-- \\Exception -->
<g id="node25" class="node"><title>\\Exception</title>
<ellipse fill="none" stroke="black" cx="174.834" cy="-72" rx="48.9926" ry="18"/>
<text text-anchor="middle" x="174.834" y="-68.3" font-family="Times,serif" font-size="14.00" fill="gray">\Exception</text>
</g>
<!-- \\Guni\\Guess\\GuessException&#45;&gt;\\Exception -->
<g id="edge8" class="edge"><title>\\Guni\\Guess\\GuessException&#45;&gt;\\Exception</title>
<path fill="none" stroke="black" d="M458.541,-547.458C440.204,-543.683 420.633,-536.945 405.669,-525 261.214,-409.688 199.238,-179.55 181.514,-99.8971"/>
<polygon fill="none" stroke="black" points="184.93,-99.134 179.391,-90.1024 178.089,-100.617 184.93,-99.134"/>
</g>
<!-- \\Guni\\Guess\\Guess -->
<g id="node18" class="node"><title>\\Guni\\Guess\\Guess</title>
<polygon fill="none" stroke="black" points="541.169,-516 487.169,-516 487.169,-480 541.169,-480 541.169,-516"/>
<text text-anchor="middle" x="514.169" y="-495.2" font-family="Courier,monospace" font-size="11.00">Guess</text>
</g>
<!-- \\Anax\\Page\\Page -->
<g id="node19" class="node"><title>\\Anax\\Page\\Page</title>
<polygon fill="none" stroke="black" points="541.169,-400 487.169,-400 487.169,-364 541.169,-364 541.169,-400"/>
<text text-anchor="middle" x="514.169" y="-379.2" font-family="Courier,monospace" font-size="11.00">Page</text>
</g>
<!-- \\Anax\\Page\\Page&#45;&gt;\\Anax\\Commons\\ContainerInjectableInterface -->
<g id="edge1" class="edge"><title>\\Anax\\Page\\Page&#45;&gt;\\Anax\\Commons\\ContainerInjectableInterface</title>
<path fill="none" stroke="black" stroke-dasharray="1,5" d="M487.04,-382.12C462.415,-380.744 426.302,-374.617 405.669,-352 312.195,-249.534 449.025,-141.773 349.669,-45 344.671,-40.132 339.181,-35.9179 333.326,-32.2795"/>
<polygon fill="none" stroke="black" points="334.94,-29.1719 324.503,-27.3519 331.527,-35.2835 334.94,-29.1719"/>
</g>
<!-- \\Anax\\Controller\\FlatFileContentController -->
<g id="node20" class="node"><title>\\Anax\\Controller\\FlatFileContentController</title>
<polygon fill="none" stroke="black" points="606.669,-212 421.669,-212 421.669,-176 606.669,-176 606.669,-212"/>
<text text-anchor="middle" x="514.169" y="-191.2" font-family="Courier,monospace" font-size="11.00">FlatFileContentController</text>
</g>
<!-- \\Anax\\Controller\\FlatFileContentController&#45;&gt;\\Anax\\Commons\\ContainerInjectableInterface -->
<g id="edge2" class="edge"><title>\\Anax\\Controller\\FlatFileContentController&#45;&gt;\\Anax\\Commons\\ContainerInjectableInterface</title>
<path fill="none" stroke="black" stroke-dasharray="1,5" d="M421.426,-177.334C415.801,-174.414 410.479,-170.997 405.669,-167 359.78,-128.873 397.263,-80.977 349.669,-45 343.159,-40.0792 336.115,-35.8914 328.718,-32.3373"/>
<polygon fill="none" stroke="black" points="329.739,-28.964 319.174,-28.1669 326.936,-35.3783 329.739,-28.964"/>
</g>
<!-- \\Anax\\Controller\\DevelopmentController -->
<g id="node21" class="node"><title>\\Anax\\Controller\\DevelopmentController</title>
<polygon fill="none" stroke="black" points="593.169,-158 435.169,-158 435.169,-122 593.169,-122 593.169,-158"/>
<text text-anchor="middle" x="514.169" y="-137.2" font-family="Courier,monospace" font-size="11.00">DevelopmentController</text>
</g>
<!-- \\Anax\\Controller\\DevelopmentController&#45;&gt;\\Anax\\Commons\\ContainerInjectableInterface -->
<g id="edge5" class="edge"><title>\\Anax\\Controller\\DevelopmentController&#45;&gt;\\Anax\\Commons\\ContainerInjectableInterface</title>
<path fill="none" stroke="black" stroke-dasharray="1,5" d="M488.836,-121.923C458.085,-100.039 402.744,-63.7879 349.669,-45 336.218,-40.2386 321.887,-36.3158 307.446,-33.0842"/>
<polygon fill="none" stroke="black" points="307.949,-29.6129 297.439,-30.9555 306.492,-36.4597 307.949,-29.6129"/>
</g>
<!-- \\Anax\\Controller\\SampleController -->
<g id="node22" class="node"><title>\\Anax\\Controller\\SampleController</title>
<polygon fill="none" stroke="black" points="576.669,-320 451.669,-320 451.669,-284 576.669,-284 576.669,-320"/>
<text text-anchor="middle" x="514.169" y="-299.2" font-family="Courier,monospace" font-size="11.00">SampleController</text>
</g>
<!-- \\Anax\\Controller\\SampleController&#45;&gt;\\Anax\\Commons\\ContainerInjectableInterface -->
<g id="edge6" class="edge"><title>\\Anax\\Controller\\SampleController&#45;&gt;\\Anax\\Commons\\ContainerInjectableInterface</title>
<path fill="none" stroke="black" stroke-dasharray="1,5" d="M451.578,-298.168C434.78,-294.276 417.871,-287.29 405.669,-275 331.545,-200.337 427.147,-116.176 349.669,-45 344.456,-40.2106 338.761,-36.0672 332.715,-32.492"/>
<polygon fill="none" stroke="black" points="334.093,-29.2607 323.621,-27.6515 330.804,-35.4398 334.093,-29.2607"/>
</g>
<!-- \\Anax\\Controller\\ErrorHandlerController -->
<g id="node23" class="node"><title>\\Anax\\Controller\\ErrorHandlerController</title>
<polygon fill="none" stroke="black" points="596.669,-266 431.669,-266 431.669,-230 596.669,-230 596.669,-266"/>
<text text-anchor="middle" x="514.169" y="-245.2" font-family="Courier,monospace" font-size="11.00">ErrorHandlerController</text>
</g>
<!-- \\Anax\\Controller\\ErrorHandlerController&#45;&gt;\\Anax\\Commons\\ContainerInjectableInterface -->
<g id="edge7" class="edge"><title>\\Anax\\Controller\\ErrorHandlerController&#45;&gt;\\Anax\\Commons\\ContainerInjectableInterface</title>
<path fill="none" stroke="black" stroke-dasharray="1,5" d="M431.603,-237.168C422.063,-233.235 413.101,-227.985 405.669,-221 345.855,-164.783 412.005,-98.408 349.669,-45 344.008,-40.1502 337.847,-35.9797 331.332,-32.4031"/>
<polygon fill="none" stroke="black" points="332.755,-29.202 322.243,-27.8859 329.64,-35.4706 332.755,-29.202"/>
</g>
</g>
</svg>
