<?xml version="1.0" encoding="UTF-8" standalone="no"?>
<!DOCTYPE svg PUBLIC "-//W3C//DTD SVG 1.1//EN"
 "http://www.w3.org/Graphics/SVG/1.1/DTD/svg11.dtd">
<!-- Generated by graphviz version 2.38.0 (20140413.2041)
 -->
<!-- Title: G Pages: 1 -->
<svg width="647pt" height="2312pt"
 viewBox="0.00 0.00 646.67 2312.00" xmlns="http://www.w3.org/2000/svg" xmlns:xlink="http://www.w3.org/1999/xlink">
<g id="graph0" class="graph" transform="scale(1 1) rotate(0) translate(4 2308)">
<title>G</title>
<polygon fill="white" stroke="none" points="-4,4 -4,-2308 642.669,-2308 642.669,4 -4,4"/>
<g id="clust1" class="cluster"><title>cluster_Global</title>
<path fill="none" stroke="gray" d="M93.8345,-98C93.8345,-98 618.669,-98 618.669,-98 624.669,-98 630.669,-104 630.669,-110 630.669,-110 630.669,-2284 630.669,-2284 630.669,-2290 624.669,-2296 618.669,-2296 618.669,-2296 93.8345,-2296 93.8345,-2296 87.8345,-2296 81.8345,-2290 81.8345,-2284 81.8345,-2284 81.8345,-110 81.8345,-110 81.8345,-104 87.8345,-98 93.8345,-98"/>
<text text-anchor="middle" x="356.252" y="-2283.2" font-family="Times,serif" font-size="11.00" fill="gray">Global</text>
</g>
<g id="clust2" class="cluster"><title>cluster_\Guni</title>
<path fill="none" stroke="gray" d="M101.834,-464C101.834,-464 577.169,-464 577.169,-464 583.169,-464 589.169,-470 589.169,-476 589.169,-476 589.169,-2256 589.169,-2256 589.169,-2262 583.169,-2268 577.169,-2268 577.169,-2268 101.834,-2268 101.834,-2268 95.8345,-2268 89.8345,-2262 89.8345,-2256 89.8345,-2256 89.8345,-476 89.8345,-476 89.8345,-470 95.8345,-464 101.834,-464"/>
<text text-anchor="middle" x="339.502" y="-2255.2" font-family="Times,serif" font-size="11.00" fill="gray">Guni</text>
</g>
<g id="clust3" class="cluster"><title>cluster_\Guni\TextFilterGuni</title>
<path fill="none" stroke="gray" d="M466.169,-2060C466.169,-2060 562.169,-2060 562.169,-2060 568.169,-2060 574.169,-2066 574.169,-2072 574.169,-2072 574.169,-2228 574.169,-2228 574.169,-2234 568.169,-2240 562.169,-2240 562.169,-2240 466.169,-2240 466.169,-2240 460.169,-2240 454.169,-2234 454.169,-2228 454.169,-2228 454.169,-2072 454.169,-2072 454.169,-2066 460.169,-2060 466.169,-2060"/>
<text text-anchor="middle" x="514.169" y="-2227.2" font-family="Times,serif" font-size="11.00" fill="gray">TextFilterGuni</text>
</g>
<g id="clust4" class="cluster"><title>cluster_\Guni\Hundred</title>
<path fill="none" stroke="gray" d="M109.834,-1602C109.834,-1602 565.669,-1602 565.669,-1602 571.669,-1602 577.669,-1608 577.669,-1614 577.669,-1614 577.669,-2040 577.669,-2040 577.669,-2046 571.669,-2052 565.669,-2052 565.669,-2052 109.834,-2052 109.834,-2052 103.834,-2052 97.8345,-2046 97.8345,-2040 97.8345,-2040 97.8345,-1614 97.8345,-1614 97.8345,-1608 103.834,-1602 109.834,-1602"/>
<text text-anchor="middle" x="337.752" y="-2039.2" font-family="Times,serif" font-size="11.00" fill="gray">Hundred</text>
</g>
<g id="clust5" class="cluster"><title>cluster_\Guni\User</title>
<path fill="none" stroke="gray" d="M462.669,-606C462.669,-606 565.669,-606 565.669,-606 571.669,-606 577.669,-612 577.669,-618 577.669,-618 577.669,-828 577.669,-828 577.669,-834 571.669,-840 565.669,-840 565.669,-840 462.669,-840 462.669,-840 456.669,-840 450.669,-834 450.669,-828 450.669,-828 450.669,-618 450.669,-618 450.669,-612 456.669,-606 462.669,-606"/>
<text text-anchor="middle" x="514.169" y="-827.2" font-family="Times,serif" font-size="11.00" fill="gray">User</text>
</g>
<g id="clust6" class="cluster"><title>cluster_\Guni\Movie</title>
<path fill="none" stroke="gray" d="M459.169,-1252C459.169,-1252 569.169,-1252 569.169,-1252 575.169,-1252 581.169,-1258 581.169,-1264 581.169,-1264 581.169,-1582 581.169,-1582 581.169,-1588 575.169,-1594 569.169,-1594 569.169,-1594 459.169,-1594 459.169,-1594 453.169,-1594 447.169,-1588 447.169,-1582 447.169,-1582 447.169,-1264 447.169,-1264 447.169,-1258 453.169,-1252 459.169,-1252"/>
<text text-anchor="middle" x="514.169" y="-1581.2" font-family="Times,serif" font-size="11.00" fill="gray">Movie</text>
</g>
<g id="clust7" class="cluster"><title>cluster_\Guni\Content</title>
<path fill="none" stroke="gray" d="M459.169,-848C459.169,-848 569.169,-848 569.169,-848 575.169,-848 581.169,-854 581.169,-860 581.169,-860 581.169,-1232 581.169,-1232 581.169,-1238 575.169,-1244 569.169,-1244 569.169,-1244 459.169,-1244 459.169,-1244 453.169,-1244 447.169,-1238 447.169,-1232 447.169,-1232 447.169,-860 447.169,-860 447.169,-854 453.169,-848 459.169,-848"/>
<text text-anchor="middle" x="514.169" y="-1231.2" font-family="Times,serif" font-size="11.00" fill="gray">Content</text>
</g>
<g id="clust8" class="cluster"><title>cluster_\Guni\Guess</title>
<path fill="none" stroke="gray" d="M462.669,-472C462.669,-472 565.669,-472 565.669,-472 571.669,-472 577.669,-478 577.669,-484 577.669,-484 577.669,-586 577.669,-586 577.669,-592 571.669,-598 565.669,-598 565.669,-598 462.669,-598 462.669,-598 456.669,-598 450.669,-592 450.669,-586 450.669,-586 450.669,-484 450.669,-484 450.669,-478 456.669,-472 462.669,-472"/>
<text text-anchor="middle" x="514.169" y="-585.2" font-family="Times,serif" font-size="11.00" fill="gray">Guess</text>
</g>
<g id="clust9" class="cluster"><title>cluster_\Anax</title>
<path fill="none" stroke="gray" d="M417.669,-106C417.669,-106 610.669,-106 610.669,-106 616.669,-106 622.669,-112 622.669,-118 622.669,-118 622.669,-444 622.669,-444 622.669,-450 616.669,-456 610.669,-456 610.669,-456 417.669,-456 417.669,-456 411.669,-456 405.669,-450 405.669,-444 405.669,-444 405.669,-118 405.669,-118 405.669,-112 411.669,-106 417.669,-106"/>
<text text-anchor="middle" x="514.169" y="-443.2" font-family="Times,serif" font-size="11.00" fill="gray">Anax</text>
</g>
<g id="clust10" class="cluster"><title>cluster_\Anax\Page</title>
<path fill="none" stroke="gray" d="M491.169,-356C491.169,-356 537.169,-356 537.169,-356 543.169,-356 549.169,-362 549.169,-368 549.169,-368 549.169,-416 549.169,-416 549.169,-422 543.169,-428 537.169,-428 537.169,-428 491.169,-428 491.169,-428 485.169,-428 479.169,-422 479.169,-416 479.169,-416 479.169,-368 479.169,-368 479.169,-362 485.169,-356 491.169,-356"/>
<text text-anchor="middle" x="514.169" y="-415.2" font-family="Times,serif" font-size="11.00" fill="gray">Page</text>
</g>
<g id="clust11" class="cluster"><title>cluster_\Anax\Controller</title>
<path fill="none" stroke="gray" d="M425.669,-114C425.669,-114 602.669,-114 602.669,-114 608.669,-114 614.669,-120 614.669,-126 614.669,-126 614.669,-336 614.669,-336 614.669,-342 608.669,-348 602.669,-348 602.669,-348 425.669,-348 425.669,-348 419.669,-348 413.669,-342 413.669,-336 413.669,-336 413.669,-126 413.669,-126 413.669,-120 419.669,-114 425.669,-114"/>
<text text-anchor="middle" x="514.169" y="-335.2" font-family="Times,serif" font-size="11.00" fill="gray">Controller</text>
</g>
<!-- \\Guni\\TextFilterGuni\\Testing -->
<g id="node1" class="node"><title>\\Guni\\TextFilterGuni\\Testing</title>
<polygon fill="none" stroke="black" points="546.169,-2212 482.169,-2212 482.169,-2176 546.169,-2176 546.169,-2212"/>
<text text-anchor="middle" x="514.169" y="-2191.2" font-family="Courier,monospace" font-size="11.00">Testing</text>
</g>
<!-- \\Guni\\TextFilterGuni\\TextFilter -->
<g id="node2" class="node"><title>\\Guni\\TextFilterGuni\\TextFilter</title>
<polygon fill="none" stroke="black" points="556.169,-2158 472.169,-2158 472.169,-2122 556.169,-2122 556.169,-2158"/>
<text text-anchor="middle" x="514.169" y="-2137.2" font-family="Courier,monospace" font-size="11.00">TextFilter</text>
</g>
<!-- \\Guni\\TextFilterGuni\\FilterButtons -->
<g id="node3" class="node"><title>\\Guni\\TextFilterGuni\\FilterButtons</title>
<polygon fill="none" stroke="black" points="566.169,-2104 462.169,-2104 462.169,-2068 566.169,-2068 566.169,-2104"/>
<text text-anchor="middle" x="514.169" y="-2083.2" font-family="Courier,monospace" font-size="11.00">FilterButtons</text>
</g>
<!-- \\Guni\\Hundred\\Player -->
<g id="node4" class="node"><title>\\Guni\\Hundred\\Player</title>
<polygon fill="none" stroke="black" points="542.669,-2024 485.669,-2024 485.669,-1988 542.669,-1988 542.669,-2024"/>
<text text-anchor="middle" x="514.169" y="-2003.2" font-family="Courier,monospace" font-size="11.00">Player</text>
</g>
<!-- \\Guni\\Hundred\\Misc -->
<g id="node5" class="node"><title>\\Guni\\Hundred\\Misc</title>
<polygon fill="none" stroke="black" points="541.169,-1970 487.169,-1970 487.169,-1934 541.169,-1934 541.169,-1970"/>
<text text-anchor="middle" x="514.169" y="-1949.2" font-family="Courier,monospace" font-size="11.00">Misc</text>
</g>
<!-- \\Guni\\Hundred\\Histogram -->
<g id="node6" class="node"><title>\\Guni\\Hundred\\Histogram</title>
<polygon fill="none" stroke="black" points="552.669,-1916 475.669,-1916 475.669,-1880 552.669,-1880 552.669,-1916"/>
<text text-anchor="middle" x="514.169" y="-1895.2" font-family="Courier,monospace" font-size="11.00">Histogram</text>
</g>
<!-- \\Guni\\Hundred\\Hundred -->
<g id="node7" class="node"><title>\\Guni\\Hundred\\Hundred</title>
<polygon fill="none" stroke="black" points="546.169,-1862 482.169,-1862 482.169,-1826 546.169,-1826 546.169,-1862"/>
<text text-anchor="middle" x="514.169" y="-1841.2" font-family="Courier,monospace" font-size="11.00">Hundred</text>
</g>
<!-- \\Guni\\Hundred\\DiceHand -->
<g id="node8" class="node"><title>\\Guni\\Hundred\\DiceHand</title>
<polygon fill="none" stroke="black" points="549.669,-1808 478.669,-1808 478.669,-1772 549.669,-1772 549.669,-1808"/>
<text text-anchor="middle" x="514.169" y="-1787.2" font-family="Courier,monospace" font-size="11.00">DiceHand</text>
</g>
<!-- \\Guni\\Hundred\\HistogramInterface -->
<g id="node12" class="node"><title>\\Guni\\Hundred\\HistogramInterface</title>
<polygon fill="none" stroke="black" points="243.834,-1808 105.834,-1808 105.834,-1772 243.834,-1772 243.834,-1808"/>
<text text-anchor="middle" x="174.834" y="-1787.2" font-family="Courier,monospace" font-size="11.00">HistogramInterface</text>
</g>
<!-- \\Guni\\Hundred\\DiceHand&#45;&gt;\\Guni\\Hundred\\HistogramInterface -->
<g id="edge6" class="edge"><title>\\Guni\\Hundred\\DiceHand&#45;&gt;\\Guni\\Hundred\\HistogramInterface</title>
<path fill="none" stroke="black" stroke-dasharray="1,5" d="M478.654,-1790C426.237,-1790 325.179,-1790 254.271,-1790"/>
<polygon fill="none" stroke="black" points="254.038,-1786.5 244.038,-1790 254.038,-1793.5 254.038,-1786.5"/>
</g>
<!-- \\Guni\\Hundred\\DiceGraphic -->
<g id="node9" class="node"><title>\\Guni\\Hundred\\DiceGraphic</title>
<polygon fill="none" stroke="black" points="559.669,-1754 468.669,-1754 468.669,-1718 559.669,-1718 559.669,-1754"/>
<text text-anchor="middle" x="514.169" y="-1733.2" font-family="Courier,monospace" font-size="11.00">DiceGraphic</text>
</g>
<!-- \\Guni\\Hundred\\Dice -->
<g id="node11" class="node"><title>\\Guni\\Hundred\\Dice</title>
<polygon fill="none" stroke="black" points="201.834,-1754 147.834,-1754 147.834,-1718 201.834,-1718 201.834,-1754"/>
<text text-anchor="middle" x="174.834" y="-1733.2" font-family="Courier,monospace" font-size="11.00">Dice</text>
</g>
<!-- \\Guni\\Hundred\\DiceGraphic&#45;&gt;\\Guni\\Hundred\\Dice -->
<g id="edge7" class="edge"><title>\\Guni\\Hundred\\DiceGraphic&#45;&gt;\\Guni\\Hundred\\Dice</title>
<path fill="none" stroke="black" d="M468.374,-1736C400.775,-1736 274.013,-1736 211.943,-1736"/>
<polygon fill="none" stroke="black" points="211.844,-1732.5 201.844,-1736 211.844,-1739.5 211.844,-1732.5"/>
</g>
<!-- \\Guni\\Hundred\\Formview -->
<g id="node10" class="node"><title>\\Guni\\Hundred\\Formview</title>
<polygon fill="none" stroke="black" points="549.669,-1700 478.669,-1700 478.669,-1664 549.669,-1664 549.669,-1700"/>
<text text-anchor="middle" x="514.169" y="-1679.2" font-family="Courier,monospace" font-size="11.00">Formview</text>
</g>
<!-- \\Guni\\Hundred\\HistogramTrait -->
<g id="node13" class="node"><title>\\Guni\\Hundred\\HistogramTrait</title>
<polygon fill="none" stroke="black" points="569.669,-1646 458.669,-1646 458.669,-1610 569.669,-1610 569.669,-1646"/>
<text text-anchor="middle" x="514.169" y="-1625.2" font-family="Courier,monospace" font-size="11.00">HistogramTrait</text>
</g>
<!-- \\Guni\\User\\UserController -->
<g id="node14" class="node"><title>\\Guni\\User\\UserController</title>
<polygon fill="none" stroke="black" points="569.669,-812 458.669,-812 458.669,-776 569.669,-776 569.669,-812"/>
<text text-anchor="middle" x="514.169" y="-791.2" font-family="Courier,monospace" font-size="11.00">UserController</text>
</g>
<!-- \\Anax\\Commons\\ContainerInjectableInterface -->
<g id="node38" class="node"><title>\\Anax\\Commons\\ContainerInjectableInterface</title>
<ellipse fill="none" stroke="black" cx="174.834" cy="-18" rx="174.669" ry="18"/>
<text text-anchor="middle" x="174.834" y="-14.3" font-family="Times,serif" font-size="14.00" fill="gray">\Anax\Commons\ContainerInjectableInterface</text>
</g>
<!-- \\Guni\\User\\UserController&#45;&gt;\\Anax\\Commons\\ContainerInjectableInterface -->
<g id="edge2" class="edge"><title>\\Guni\\User\\UserController&#45;&gt;\\Anax\\Commons\\ContainerInjectableInterface</title>
<path fill="none" stroke="black" stroke-dasharray="1,5" d="M458.411,-792.969C438.934,-789.686 418.64,-782.366 405.669,-767 301.866,-644.027 459.016,-163.07 349.669,-45 345.243,-40.2208 340.348,-36.0505 335.092,-32.4209"/>
<polygon fill="none" stroke="black" points="336.901,-29.4245 326.553,-27.1524 333.226,-35.3819 336.901,-29.4245"/>
</g>
<!-- \\Guni\\User\\UserDb -->
<g id="node15" class="node"><title>\\Guni\\User\\UserDb</title>
<polygon fill="none" stroke="black" points="542.669,-758 485.669,-758 485.669,-722 542.669,-722 542.669,-758"/>
<text text-anchor="middle" x="514.169" y="-737.2" font-family="Courier,monospace" font-size="11.00">UserDb</text>
</g>
<!-- \\Guni\\User\\User -->
<g id="node16" class="node"><title>\\Guni\\User\\User</title>
<polygon fill="none" stroke="black" points="541.169,-704 487.169,-704 487.169,-668 541.169,-668 541.169,-704"/>
<text text-anchor="middle" x="514.169" y="-683.2" font-family="Courier,monospace" font-size="11.00">User</text>
</g>
<!-- \\Guni\\User\\UserException -->
<g id="node17" class="node"><title>\\Guni\\User\\UserException</title>
<polygon fill="none" stroke="black" points="566.169,-650 462.169,-650 462.169,-614 566.169,-614 566.169,-650"/>
<text text-anchor="middle" x="514.169" y="-629.2" font-family="Courier,monospace" font-size="11.00">UserException</text>
</g>
<!-- \\Exception -->
<g id="node39" class="node"><title>\\Exception</title>
<ellipse fill="none" stroke="black" cx="174.834" cy="-72" rx="48.9926" ry="18"/>
<text text-anchor="middle" x="174.834" y="-68.3" font-family="Times,serif" font-size="14.00" fill="gray">\Exception</text>
</g>
<!-- \\Guni\\User\\UserException&#45;&gt;\\Exception -->
<g id="edge10" class="edge"><title>\\Guni\\User\\UserException&#45;&gt;\\Exception</title>
<path fill="none" stroke="black" d="M461.92,-627.128C442.443,-623.028 421.225,-615.559 405.669,-602 244.724,-461.725 192.523,-188.272 179.502,-100.116"/>
<polygon fill="none" stroke="black" points="182.947,-99.4817 178.072,-90.0751 176.017,-100.469 182.947,-99.4817"/>
</g>
<!-- \\Guni\\Movie\\Buttons -->
<g id="node18" class="node"><title>\\Guni\\Movie\\Buttons</title>
<polygon fill="none" stroke="black" points="546.169,-1566 482.169,-1566 482.169,-1530 546.169,-1530 546.169,-1566"/>
<text text-anchor="middle" x="514.169" y="-1545.2" font-family="Courier,monospace" font-size="11.00">Buttons</text>
</g>
<!-- \\Guni\\Movie\\Movies -->
<g id="node19" class="node"><title>\\Guni\\Movie\\Movies</title>
<polygon fill="none" stroke="black" points="542.669,-1512 485.669,-1512 485.669,-1476 542.669,-1476 542.669,-1512"/>
<text text-anchor="middle" x="514.169" y="-1491.2" font-family="Courier,monospace" font-size="11.00">Movies</text>
</g>
<!-- \\Guni\\Movie\\MovieDb -->
<g id="node20" class="node"><title>\\Guni\\Movie\\MovieDb</title>
<polygon fill="none" stroke="black" points="546.169,-1458 482.169,-1458 482.169,-1422 546.169,-1422 546.169,-1458"/>
<text text-anchor="middle" x="514.169" y="-1437.2" font-family="Courier,monospace" font-size="11.00">MovieDb</text>
</g>
<!-- \\Guni\\Movie\\MoviesExtra -->
<g id="node21" class="node"><title>\\Guni\\Movie\\MoviesExtra</title>
<polygon fill="none" stroke="black" points="559.669,-1404 468.669,-1404 468.669,-1368 559.669,-1368 559.669,-1404"/>
<text text-anchor="middle" x="514.169" y="-1383.2" font-family="Courier,monospace" font-size="11.00">MoviesExtra</text>
</g>
<!-- \\Guni\\Movie\\MovieController -->
<g id="node22" class="node"><title>\\Guni\\Movie\\MovieController</title>
<polygon fill="none" stroke="black" points="573.169,-1350 455.169,-1350 455.169,-1314 573.169,-1314 573.169,-1350"/>
<text text-anchor="middle" x="514.169" y="-1329.2" font-family="Courier,monospace" font-size="11.00">MovieController</text>
</g>
<!-- \\Guni\\Movie\\MovieController&#45;&gt;\\Anax\\Commons\\ContainerInjectableInterface -->
<g id="edge14" class="edge"><title>\\Guni\\Movie\\MovieController&#45;&gt;\\Anax\\Commons\\ContainerInjectableInterface</title>
<path fill="none" stroke="black" stroke-dasharray="1,5" d="M455.057,-1330.64C436.521,-1327.14 417.715,-1319.76 405.669,-1305 317.054,-1196.44 443.181,-149.375 349.669,-45 345.322,-40.1484 340.493,-35.9179 335.293,-32.2385"/>
<polygon fill="none" stroke="black" points="337.155,-29.2752 326.83,-26.9002 333.42,-35.1957 337.155,-29.2752"/>
</g>
<!-- \\Guni\\Movie\\MoviesExtraDb -->
<g id="node23" class="node"><title>\\Guni\\Movie\\MoviesExtraDb</title>
<polygon fill="none" stroke="black" points="566.169,-1296 462.169,-1296 462.169,-1260 566.169,-1260 566.169,-1296"/>
<text text-anchor="middle" x="514.169" y="-1275.2" font-family="Courier,monospace" font-size="11.00">MoviesExtraDb</text>
</g>
<!-- \\Guni\\Content\\Admin -->
<g id="node24" class="node"><title>\\Guni\\Content\\Admin</title>
<polygon fill="none" stroke="black" points="541.169,-1216 487.169,-1216 487.169,-1180 541.169,-1180 541.169,-1216"/>
<text text-anchor="middle" x="514.169" y="-1195.2" font-family="Courier,monospace" font-size="11.00">Admin</text>
</g>
<!-- \\Guni\\Content\\BlogController -->
<g id="node25" class="node"><title>\\Guni\\Content\\BlogController</title>
<polygon fill="none" stroke="black" points="569.669,-1000 458.669,-1000 458.669,-964 569.669,-964 569.669,-1000"/>
<text text-anchor="middle" x="514.169" y="-979.2" font-family="Courier,monospace" font-size="11.00">BlogController</text>
</g>
<!-- \\Guni\\Content\\BlogController&#45;&gt;\\Anax\\Commons\\ContainerInjectableInterface -->
<g id="edge4" class="edge"><title>\\Guni\\Content\\BlogController&#45;&gt;\\Anax\\Commons\\ContainerInjectableInterface</title>
<path fill="none" stroke="black" stroke-dasharray="1,5" d="M458.562,-981.124C438.983,-977.878 418.578,-970.543 405.669,-955 276.221,-799.141 486.146,-194.742 349.669,-45 345.281,-40.1857 340.418,-35.9861 335.189,-32.3323"/>
<polygon fill="none" stroke="black" points="337.024,-29.3517 326.686,-27.0299 333.319,-35.2914 337.024,-29.3517"/>
</g>
<!-- \\Guni\\Content\\PageController -->
<g id="node26" class="node"><title>\\Guni\\Content\\PageController</title>
<polygon fill="none" stroke="black" points="569.669,-1162 458.669,-1162 458.669,-1126 569.669,-1126 569.669,-1162"/>
<text text-anchor="middle" x="514.169" y="-1141.2" font-family="Courier,monospace" font-size="11.00">PageController</text>
</g>
<!-- \\Guni\\Content\\PageController&#45;&gt;\\Anax\\Commons\\ContainerInjectableInterface -->
<g id="edge5" class="edge"><title>\\Guni\\Content\\PageController&#45;&gt;\\Anax\\Commons\\ContainerInjectableInterface</title>
<path fill="none" stroke="black" stroke-dasharray="1,5" d="M458.486,-1143.19C438.897,-1139.95 418.506,-1132.6 405.669,-1117 254.109,-932.788 509.538,-222.05 349.669,-45 345.303,-40.1654 340.459,-35.9489 335.245,-32.2812"/>
<polygon fill="none" stroke="black" points="337.095,-29.31 326.764,-26.9593 333.374,-35.2392 337.095,-29.31"/>
</g>
<!-- \\Guni\\Content\\Content -->
<g id="node27" class="node"><title>\\Guni\\Content\\Content</title>
<polygon fill="none" stroke="black" points="546.169,-1054 482.169,-1054 482.169,-1018 546.169,-1018 546.169,-1054"/>
<text text-anchor="middle" x="514.169" y="-1033.2" font-family="Courier,monospace" font-size="11.00">Content</text>
</g>
<!-- \\Guni\\Content\\AdminController -->
<g id="node28" class="node"><title>\\Guni\\Content\\AdminController</title>
<polygon fill="none" stroke="black" points="573.169,-1108 455.169,-1108 455.169,-1072 573.169,-1072 573.169,-1108"/>
<text text-anchor="middle" x="514.169" y="-1087.2" font-family="Courier,monospace" font-size="11.00">AdminController</text>
</g>
<!-- \\Guni\\Content\\AdminController&#45;&gt;\\Anax\\Commons\\ContainerInjectableInterface -->
<g id="edge12" class="edge"><title>\\Guni\\Content\\AdminController&#45;&gt;\\Anax\\Commons\\ContainerInjectableInterface</title>
<path fill="none" stroke="black" stroke-dasharray="1,5" d="M455.145,-1088.57C436.617,-1085.06 417.793,-1077.69 405.669,-1063 261.481,-888.24 501.74,-212.946 349.669,-45 345.297,-40.1714 340.447,-35.96 335.228,-32.2964"/>
<polygon fill="none" stroke="black" points="337.074,-29.3224 326.741,-26.9803 333.358,-35.2548 337.074,-29.3224"/>
</g>
<!-- \\Guni\\Content\\Blog -->
<g id="node29" class="node"><title>\\Guni\\Content\\Blog</title>
<polygon fill="none" stroke="black" points="541.169,-946 487.169,-946 487.169,-910 541.169,-910 541.169,-946"/>
<text text-anchor="middle" x="514.169" y="-925.2" font-family="Courier,monospace" font-size="11.00">Blog</text>
</g>
<!-- \\Guni\\Content\\Page -->
<g id="node30" class="node"><title>\\Guni\\Content\\Page</title>
<polygon fill="none" stroke="black" points="541.169,-892 487.169,-892 487.169,-856 541.169,-856 541.169,-892"/>
<text text-anchor="middle" x="514.169" y="-871.2" font-family="Courier,monospace" font-size="11.00">Page</text>
</g>
<!-- \\Guni\\Guess\\GuessException -->
<g id="node31" class="node"><title>\\Guni\\Guess\\GuessException</title>
<polygon fill="none" stroke="black" points="569.669,-570 458.669,-570 458.669,-534 569.669,-534 569.669,-570"/>
<text text-anchor="middle" x="514.169" y="-549.2" font-family="Courier,monospace" font-size="11.00">GuessException</text>
</g>
<!-- \\Guni\\Guess\\GuessException&#45;&gt;\\Exception -->
<g id="edge13" class="edge"><title>\\Guni\\Guess\\GuessException&#45;&gt;\\Exception</title>
<path fill="none" stroke="black" d="M458.541,-547.458C440.204,-543.683 420.633,-536.945 405.669,-525 261.214,-409.688 199.238,-179.55 181.514,-99.8971"/>
<polygon fill="none" stroke="black" points="184.93,-99.134 179.391,-90.1024 178.089,-100.617 184.93,-99.134"/>
</g>
<!-- \\Guni\\Guess\\Guess -->
<g id="node32" class="node"><title>\\Guni\\Guess\\Guess</title>
<polygon fill="none" stroke="black" points="541.169,-516 487.169,-516 487.169,-480 541.169,-480 541.169,-516"/>
<text text-anchor="middle" x="514.169" y="-495.2" font-family="Courier,monospace" font-size="11.00">Guess</text>
</g>
<!-- \\Anax\\Page\\Page -->
<g id="node33" class="node"><title>\\Anax\\Page\\Page</title>
<polygon fill="none" stroke="black" points="541.169,-400 487.169,-400 487.169,-364 541.169,-364 541.169,-400"/>
<text text-anchor="middle" x="514.169" y="-379.2" font-family="Courier,monospace" font-size="11.00">Page</text>
</g>
<!-- \\Anax\\Page\\Page&#45;&gt;\\Anax\\Commons\\ContainerInjectableInterface -->
<g id="edge1" class="edge"><title>\\Anax\\Page\\Page&#45;&gt;\\Anax\\Commons\\ContainerInjectableInterface</title>
<path fill="none" stroke="black" stroke-dasharray="1,5" d="M487.04,-382.12C462.415,-380.744 426.302,-374.617 405.669,-352 312.195,-249.534 449.025,-141.773 349.669,-45 344.671,-40.132 339.181,-35.9179 333.326,-32.2795"/>
<polygon fill="none" stroke="black" points="334.94,-29.1719 324.503,-27.3519 331.527,-35.2835 334.94,-29.1719"/>
</g>
<!-- \\Anax\\Controller\\FlatFileContentController -->
<g id="node34" class="node"><title>\\Anax\\Controller\\FlatFileContentController</title>
<polygon fill="none" stroke="black" points="606.669,-212 421.669,-212 421.669,-176 606.669,-176 606.669,-212"/>
<text text-anchor="middle" x="514.169" y="-191.2" font-family="Courier,monospace" font-size="11.00">FlatFileContentController</text>
</g>
<!-- \\Anax\\Controller\\FlatFileContentController&#45;&gt;\\Anax\\Commons\\ContainerInjectableInterface -->
<g id="edge3" class="edge"><title>\\Anax\\Controller\\FlatFileContentController&#45;&gt;\\Anax\\Commons\\ContainerInjectableInterface</title>
<path fill="none" stroke="black" stroke-dasharray="1,5" d="M421.426,-177.334C415.801,-174.414 410.479,-170.997 405.669,-167 359.78,-128.873 397.263,-80.977 349.669,-45 343.159,-40.0792 336.115,-35.8914 328.718,-32.3373"/>
<polygon fill="none" stroke="black" points="329.739,-28.964 319.174,-28.1669 326.936,-35.3783 329.739,-28.964"/>
</g>
<!-- \\Anax\\Controller\\DevelopmentController -->
<g id="node35" class="node"><title>\\Anax\\Controller\\DevelopmentController</title>
<polygon fill="none" stroke="black" points="593.169,-158 435.169,-158 435.169,-122 593.169,-122 593.169,-158"/>
<text text-anchor="middle" x="514.169" y="-137.2" font-family="Courier,monospace" font-size="11.00">DevelopmentController</text>
</g>
<!-- \\Anax\\Controller\\DevelopmentController&#45;&gt;\\Anax\\Commons\\ContainerInjectableInterface -->
<g id="edge8" class="edge"><title>\\Anax\\Controller\\DevelopmentController&#45;&gt;\\Anax\\Commons\\ContainerInjectableInterface</title>
<path fill="none" stroke="black" stroke-dasharray="1,5" d="M488.836,-121.923C458.085,-100.039 402.744,-63.7879 349.669,-45 336.218,-40.2386 321.887,-36.3158 307.446,-33.0842"/>
<polygon fill="none" stroke="black" points="307.949,-29.6129 297.439,-30.9555 306.492,-36.4597 307.949,-29.6129"/>
</g>
<!-- \\Anax\\Controller\\SampleController -->
<g id="node36" class="node"><title>\\Anax\\Controller\\SampleController</title>
<polygon fill="none" stroke="black" points="576.669,-320 451.669,-320 451.669,-284 576.669,-284 576.669,-320"/>
<text text-anchor="middle" x="514.169" y="-299.2" font-family="Courier,monospace" font-size="11.00">SampleController</text>
</g>
<!-- \\Anax\\Controller\\SampleController&#45;&gt;\\Anax\\Commons\\ContainerInjectableInterface -->
<g id="edge9" class="edge"><title>\\Anax\\Controller\\SampleController&#45;&gt;\\Anax\\Commons\\ContainerInjectableInterface</title>
<path fill="none" stroke="black" stroke-dasharray="1,5" d="M451.578,-298.168C434.78,-294.276 417.871,-287.29 405.669,-275 331.545,-200.337 427.147,-116.176 349.669,-45 344.456,-40.2106 338.761,-36.0672 332.715,-32.492"/>
<polygon fill="none" stroke="black" points="334.093,-29.2607 323.621,-27.6515 330.804,-35.4398 334.093,-29.2607"/>
</g>
<!-- \\Anax\\Controller\\ErrorHandlerController -->
<g id="node37" class="node"><title>\\Anax\\Controller\\ErrorHandlerController</title>
<polygon fill="none" stroke="black" points="596.669,-266 431.669,-266 431.669,-230 596.669,-230 596.669,-266"/>
<text text-anchor="middle" x="514.169" y="-245.2" font-family="Courier,monospace" font-size="11.00">ErrorHandlerController</text>
</g>
<!-- \\Anax\\Controller\\ErrorHandlerController&#45;&gt;\\Anax\\Commons\\ContainerInjectableInterface -->
<g id="edge11" class="edge"><title>\\Anax\\Controller\\ErrorHandlerController&#45;&gt;\\Anax\\Commons\\ContainerInjectableInterface</title>
<path fill="none" stroke="black" stroke-dasharray="1,5" d="M431.603,-237.168C422.063,-233.235 413.101,-227.985 405.669,-221 345.855,-164.783 412.005,-98.408 349.669,-45 344.008,-40.1502 337.847,-35.9797 331.332,-32.4031"/>
<polygon fill="none" stroke="black" points="332.755,-29.202 322.243,-27.8859 329.64,-35.4706 332.755,-29.202"/>
</g>
</g>
</svg>
