<?xml version="1.0" encoding="UTF-8" standalone="no"?>
<!DOCTYPE svg PUBLIC "-//W3C//DTD SVG 1.1//EN"
 "http://www.w3.org/Graphics/SVG/1.1/DTD/svg11.dtd">
<!-- Generated by graphviz version 2.38.0 (20140413.2041)
 -->
<!-- Title: G Pages: 1 -->
<svg width="647pt" height="912pt"
 viewBox="0.00 0.00 646.67 912.00" xmlns="http://www.w3.org/2000/svg" xmlns:xlink="http://www.w3.org/1999/xlink">
<g id="graph0" class="graph" transform="scale(1 1) rotate(0) translate(4 908)">
<title>G</title>
<polygon fill="white" stroke="none" points="-4,4 -4,-908 642.669,-908 642.669,4 -4,4"/>
<g id="clust1" class="cluster"><title>cluster_Global</title>
<path fill="none" stroke="gray" d="M135.834,-98C135.834,-98 618.669,-98 618.669,-98 624.669,-98 630.669,-104 630.669,-110 630.669,-110 630.669,-884 630.669,-884 630.669,-890 624.669,-896 618.669,-896 618.669,-896 135.834,-896 135.834,-896 129.834,-896 123.834,-890 123.834,-884 123.834,-884 123.834,-110 123.834,-110 123.834,-104 129.834,-98 135.834,-98"/>
<text text-anchor="middle" x="377.252" y="-883.2" font-family="Times,serif" font-size="11.00" fill="gray">Global</text>
</g>
<g id="clust2" class="cluster"><title>cluster_\Guni</title>
<path fill="none" stroke="gray" d="M143.834,-464C143.834,-464 573.669,-464 573.669,-464 579.669,-464 585.669,-470 585.669,-476 585.669,-476 585.669,-856 585.669,-856 585.669,-862 579.669,-868 573.669,-868 573.669,-868 143.834,-868 143.834,-868 137.834,-868 131.834,-862 131.834,-856 131.834,-856 131.834,-476 131.834,-476 131.834,-470 137.834,-464 143.834,-464"/>
<text text-anchor="middle" x="358.752" y="-855.2" font-family="Times,serif" font-size="11.00" fill="gray">Guni</text>
</g>
<g id="clust3" class="cluster"><title>cluster_\Guni\Hundred</title>
<path fill="none" stroke="gray" d="M151.834,-606C151.834,-606 555.669,-606 555.669,-606 561.669,-606 567.669,-612 567.669,-618 567.669,-618 567.669,-828 567.669,-828 567.669,-834 561.669,-840 555.669,-840 555.669,-840 151.834,-840 151.834,-840 145.834,-840 139.834,-834 139.834,-828 139.834,-828 139.834,-618 139.834,-618 139.834,-612 145.834,-606 151.834,-606"/>
<text text-anchor="middle" x="353.752" y="-827.2" font-family="Times,serif" font-size="11.00" fill="gray">Hundred</text>
</g>
<g id="clust4" class="cluster"><title>cluster_\Guni\Guess</title>
<path fill="none" stroke="gray" d="M462.669,-472C462.669,-472 565.669,-472 565.669,-472 571.669,-472 577.669,-478 577.669,-484 577.669,-484 577.669,-586 577.669,-586 577.669,-592 571.669,-598 565.669,-598 565.669,-598 462.669,-598 462.669,-598 456.669,-598 450.669,-592 450.669,-586 450.669,-586 450.669,-484 450.669,-484 450.669,-478 456.669,-472 462.669,-472"/>
<text text-anchor="middle" x="514.169" y="-585.2" font-family="Times,serif" font-size="11.00" fill="gray">Guess</text>
</g>
<g id="clust5" class="cluster"><title>cluster_\Anax</title>
<path fill="none" stroke="gray" d="M417.669,-106C417.669,-106 610.669,-106 610.669,-106 616.669,-106 622.669,-112 622.669,-118 622.669,-118 622.669,-444 622.669,-444 622.669,-450 616.669,-456 610.669,-456 610.669,-456 417.669,-456 417.669,-456 411.669,-456 405.669,-450 405.669,-444 405.669,-444 405.669,-118 405.669,-118 405.669,-112 411.669,-106 417.669,-106"/>
<text text-anchor="middle" x="514.169" y="-443.2" font-family="Times,serif" font-size="11.00" fill="gray">Anax</text>
</g>
<g id="clust6" class="cluster"><title>cluster_\Anax\Page</title>
<path fill="none" stroke="gray" d="M491.169,-356C491.169,-356 537.169,-356 537.169,-356 543.169,-356 549.169,-362 549.169,-368 549.169,-368 549.169,-416 549.169,-416 549.169,-422 543.169,-428 537.169,-428 537.169,-428 491.169,-428 491.169,-428 485.169,-428 479.169,-422 479.169,-416 479.169,-416 479.169,-368 479.169,-368 479.169,-362 485.169,-356 491.169,-356"/>
<text text-anchor="middle" x="514.169" y="-415.2" font-family="Times,serif" font-size="11.00" fill="gray">Page</text>
</g>
<g id="clust7" class="cluster"><title>cluster_\Anax\Controller</title>
<path fill="none" stroke="gray" d="M425.669,-114C425.669,-114 602.669,-114 602.669,-114 608.669,-114 614.669,-120 614.669,-126 614.669,-126 614.669,-336 614.669,-336 614.669,-342 608.669,-348 602.669,-348 602.669,-348 425.669,-348 425.669,-348 419.669,-348 413.669,-342 413.669,-336 413.669,-336 413.669,-126 413.669,-126 413.669,-120 419.669,-114 425.669,-114"/>
<text text-anchor="middle" x="514.169" y="-335.2" font-family="Times,serif" font-size="11.00" fill="gray">Controller</text>
</g>
<!-- \\Guni\\Hundred\\Player -->
<g id="node1" class="node"><title>\\Guni\\Hundred\\Player</title>
<polygon fill="none" stroke="black" points="542.669,-812 485.669,-812 485.669,-776 542.669,-776 542.669,-812"/>
<text text-anchor="middle" x="514.169" y="-791.2" font-family="Courier,monospace" font-size="11.00">Player</text>
</g>
<!-- \\Guni\\Hundred\\Hundred -->
<g id="node2" class="node"><title>\\Guni\\Hundred\\Hundred</title>
<polygon fill="none" stroke="black" points="546.169,-758 482.169,-758 482.169,-722 546.169,-722 546.169,-758"/>
<text text-anchor="middle" x="514.169" y="-737.2" font-family="Courier,monospace" font-size="11.00">Hundred</text>
</g>
<!-- \\Guni\\Hundred\\DiceHand -->
<g id="node3" class="node"><title>\\Guni\\Hundred\\DiceHand</title>
<polygon fill="none" stroke="black" points="549.669,-704 478.669,-704 478.669,-668 549.669,-668 549.669,-704"/>
<text text-anchor="middle" x="514.169" y="-683.2" font-family="Courier,monospace" font-size="11.00">DiceHand</text>
</g>
<!-- \\Guni\\Hundred\\DiceGraphic -->
<g id="node4" class="node"><title>\\Guni\\Hundred\\DiceGraphic</title>
<polygon fill="none" stroke="black" points="559.669,-650 468.669,-650 468.669,-614 559.669,-614 559.669,-650"/>
<text text-anchor="middle" x="514.169" y="-629.2" font-family="Courier,monospace" font-size="11.00">DiceGraphic</text>
</g>
<!-- \\Guni\\Hundred\\Dice -->
<g id="node5" class="node"><title>\\Guni\\Hundred\\Dice</title>
<polygon fill="none" stroke="black" points="201.834,-650 147.834,-650 147.834,-614 201.834,-614 201.834,-650"/>
<text text-anchor="middle" x="174.834" y="-629.2" font-family="Courier,monospace" font-size="11.00">Dice</text>
</g>
<!-- \\Guni\\Hundred\\DiceGraphic&#45;&gt;\\Guni\\Hundred\\Dice -->
<g id="edge3" class="edge"><title>\\Guni\\Hundred\\DiceGraphic&#45;&gt;\\Guni\\Hundred\\Dice</title>
<path fill="none" stroke="black" d="M468.374,-632C400.775,-632 274.013,-632 211.943,-632"/>
<polygon fill="none" stroke="black" points="211.844,-628.5 201.844,-632 211.844,-635.5 211.844,-628.5"/>
</g>
<!-- \\Guni\\Guess\\GuessException -->
<g id="node6" class="node"><title>\\Guni\\Guess\\GuessException</title>
<polygon fill="none" stroke="black" points="569.669,-570 458.669,-570 458.669,-534 569.669,-534 569.669,-570"/>
<text text-anchor="middle" x="514.169" y="-549.2" font-family="Courier,monospace" font-size="11.00">GuessException</text>
</g>
<!-- \\Exception -->
<g id="node14" class="node"><title>\\Exception</title>
<ellipse fill="none" stroke="black" cx="174.834" cy="-72" rx="48.9926" ry="18"/>
<text text-anchor="middle" x="174.834" y="-68.3" font-family="Times,serif" font-size="14.00" fill="gray">\Exception</text>
</g>
<!-- \\Guni\\Guess\\GuessException&#45;&gt;\\Exception -->
<g id="edge7" class="edge"><title>\\Guni\\Guess\\GuessException&#45;&gt;\\Exception</title>
<path fill="none" stroke="black" d="M458.541,-547.458C440.204,-543.683 420.633,-536.945 405.669,-525 261.214,-409.688 199.238,-179.55 181.514,-99.8971"/>
<polygon fill="none" stroke="black" points="184.93,-99.134 179.391,-90.1024 178.089,-100.617 184.93,-99.134"/>
</g>
<!-- \\Guni\\Guess\\Guess -->
<g id="node7" class="node"><title>\\Guni\\Guess\\Guess</title>
<polygon fill="none" stroke="black" points="541.169,-516 487.169,-516 487.169,-480 541.169,-480 541.169,-516"/>
<text text-anchor="middle" x="514.169" y="-495.2" font-family="Courier,monospace" font-size="11.00">Guess</text>
</g>
<!-- \\Anax\\Page\\Page -->
<g id="node8" class="node"><title>\\Anax\\Page\\Page</title>
<polygon fill="none" stroke="black" points="541.169,-400 487.169,-400 487.169,-364 541.169,-364 541.169,-400"/>
<text text-anchor="middle" x="514.169" y="-379.2" font-family="Courier,monospace" font-size="11.00">Page</text>
</g>
<!-- \\Anax\\Commons\\ContainerInjectableInterface -->
<g id="node13" class="node"><title>\\Anax\\Commons\\ContainerInjectableInterface</title>
<ellipse fill="none" stroke="black" cx="174.834" cy="-18" rx="174.669" ry="18"/>
<text text-anchor="middle" x="174.834" y="-14.3" font-family="Times,serif" font-size="14.00" fill="gray">\Anax\Commons\ContainerInjectableInterface</text>
</g>
<!-- \\Anax\\Page\\Page&#45;&gt;\\Anax\\Commons\\ContainerInjectableInterface -->
<g id="edge1" class="edge"><title>\\Anax\\Page\\Page&#45;&gt;\\Anax\\Commons\\ContainerInjectableInterface</title>
<path fill="none" stroke="black" stroke-dasharray="1,5" d="M487.04,-382.12C462.415,-380.744 426.302,-374.617 405.669,-352 312.195,-249.534 449.025,-141.773 349.669,-45 344.671,-40.132 339.181,-35.9179 333.326,-32.2795"/>
<polygon fill="none" stroke="black" points="334.94,-29.1719 324.503,-27.3519 331.527,-35.2835 334.94,-29.1719"/>
</g>
<!-- \\Anax\\Controller\\FlatFileContentController -->
<g id="node9" class="node"><title>\\Anax\\Controller\\FlatFileContentController</title>
<polygon fill="none" stroke="black" points="606.669,-320 421.669,-320 421.669,-284 606.669,-284 606.669,-320"/>
<text text-anchor="middle" x="514.169" y="-299.2" font-family="Courier,monospace" font-size="11.00">FlatFileContentController</text>
</g>
<!-- \\Anax\\Controller\\FlatFileContentController&#45;&gt;\\Anax\\Commons\\ContainerInjectableInterface -->
<g id="edge2" class="edge"><title>\\Anax\\Controller\\FlatFileContentController&#45;&gt;\\Anax\\Commons\\ContainerInjectableInterface</title>
<path fill="none" stroke="black" stroke-dasharray="1,5" d="M421.505,-286.92C415.715,-283.643 410.346,-279.711 405.669,-275 331.545,-200.337 427.147,-116.176 349.669,-45 344.456,-40.2106 338.761,-36.0672 332.715,-32.492"/>
<polygon fill="none" stroke="black" points="334.093,-29.2607 323.621,-27.6515 330.804,-35.4398 334.093,-29.2607"/>
</g>
<!-- \\Anax\\Controller\\DevelopmentController -->
<g id="node10" class="node"><title>\\Anax\\Controller\\DevelopmentController</title>
<polygon fill="none" stroke="black" points="593.169,-266 435.169,-266 435.169,-230 593.169,-230 593.169,-266"/>
<text text-anchor="middle" x="514.169" y="-245.2" font-family="Courier,monospace" font-size="11.00">DevelopmentController</text>
</g>
<!-- \\Anax\\Controller\\DevelopmentController&#45;&gt;\\Anax\\Commons\\ContainerInjectableInterface -->
<g id="edge4" class="edge"><title>\\Anax\\Controller\\DevelopmentController&#45;&gt;\\Anax\\Commons\\ContainerInjectableInterface</title>
<path fill="none" stroke="black" stroke-dasharray="1,5" d="M435.137,-238.557C424.284,-234.496 414.012,-228.841 405.669,-221 345.855,-164.783 412.005,-98.408 349.669,-45 344.008,-40.1502 337.847,-35.9797 331.332,-32.4031"/>
<polygon fill="none" stroke="black" points="332.755,-29.202 322.243,-27.8859 329.64,-35.4706 332.755,-29.202"/>
</g>
<!-- \\Anax\\Controller\\SampleController -->
<g id="node11" class="node"><title>\\Anax\\Controller\\SampleController</title>
<polygon fill="none" stroke="black" points="576.669,-212 451.669,-212 451.669,-176 576.669,-176 576.669,-212"/>
<text text-anchor="middle" x="514.169" y="-191.2" font-family="Courier,monospace" font-size="11.00">SampleController</text>
</g>
<!-- \\Anax\\Controller\\SampleController&#45;&gt;\\Anax\\Commons\\ContainerInjectableInterface -->
<g id="edge5" class="edge"><title>\\Anax\\Controller\\SampleController&#45;&gt;\\Anax\\Commons\\ContainerInjectableInterface</title>
<path fill="none" stroke="black" stroke-dasharray="1,5" d="M451.592,-188.291C435.276,-184.319 418.62,-177.76 405.669,-167 359.78,-128.873 397.263,-80.977 349.669,-45 343.159,-40.0792 336.115,-35.8914 328.718,-32.3373"/>
<polygon fill="none" stroke="black" points="329.739,-28.964 319.174,-28.1669 326.936,-35.3783 329.739,-28.964"/>
</g>
<!-- \\Anax\\Controller\\ErrorHandlerController -->
<g id="node12" class="node"><title>\\Anax\\Controller\\ErrorHandlerController</title>
<polygon fill="none" stroke="black" points="596.669,-158 431.669,-158 431.669,-122 596.669,-122 596.669,-158"/>
<text text-anchor="middle" x="514.169" y="-137.2" font-family="Courier,monospace" font-size="11.00">ErrorHandlerController</text>
</g>
<!-- \\Anax\\Controller\\ErrorHandlerController&#45;&gt;\\Anax\\Commons\\ContainerInjectableInterface -->
<g id="edge6" class="edge"><title>\\Anax\\Controller\\ErrorHandlerController&#45;&gt;\\Anax\\Commons\\ContainerInjectableInterface</title>
<path fill="none" stroke="black" stroke-dasharray="1,5" d="M488.836,-121.923C458.085,-100.039 402.744,-63.7879 349.669,-45 336.218,-40.2386 321.887,-36.3158 307.446,-33.0842"/>
<polygon fill="none" stroke="black" points="307.949,-29.6129 297.439,-30.9555 306.492,-36.4597 307.949,-29.6129"/>
</g>
</g>
</svg>
