<?xml version="1.0" encoding="UTF-8" standalone="no"?>
<!DOCTYPE svg PUBLIC "-//W3C//DTD SVG 1.1//EN"
 "http://www.w3.org/Graphics/SVG/1.1/DTD/svg11.dtd">
<!-- Generated by graphviz version 2.38.0 (20140413.2041)
 -->
<!-- Title: G Pages: 1 -->
<svg width="647pt" height="1128pt"
 viewBox="0.00 0.00 646.67 1128.00" xmlns="http://www.w3.org/2000/svg" xmlns:xlink="http://www.w3.org/1999/xlink">
<g id="graph0" class="graph" transform="scale(1 1) rotate(0) translate(4 1124)">
<title>G</title>
<polygon fill="white" stroke="none" points="-4,4 -4,-1124 642.669,-1124 642.669,4 -4,4"/>
<g id="clust1" class="cluster"><title>cluster_Global</title>
<path fill="none" stroke="gray" d="M93.8345,-98C93.8345,-98 618.669,-98 618.669,-98 624.669,-98 630.669,-104 630.669,-110 630.669,-110 630.669,-1100 630.669,-1100 630.669,-1106 624.669,-1112 618.669,-1112 618.669,-1112 93.8345,-1112 93.8345,-1112 87.8345,-1112 81.8345,-1106 81.8345,-1100 81.8345,-1100 81.8345,-110 81.8345,-110 81.8345,-104 87.8345,-98 93.8345,-98"/>
<text text-anchor="middle" x="356.252" y="-1099.2" font-family="Times,serif" font-size="11.00" fill="gray">Global</text>
</g>
<g id="clust2" class="cluster"><title>cluster_\Guni</title>
<path fill="none" stroke="gray" d="M101.834,-464C101.834,-464 573.669,-464 573.669,-464 579.669,-464 585.669,-470 585.669,-476 585.669,-476 585.669,-1072 585.669,-1072 585.669,-1078 579.669,-1084 573.669,-1084 573.669,-1084 101.834,-1084 101.834,-1084 95.8345,-1084 89.8345,-1078 89.8345,-1072 89.8345,-1072 89.8345,-476 89.8345,-476 89.8345,-470 95.8345,-464 101.834,-464"/>
<text text-anchor="middle" x="337.752" y="-1071.2" font-family="Times,serif" font-size="11.00" fill="gray">Guni</text>
</g>
<g id="clust3" class="cluster"><title>cluster_\Guni\Hundred</title>
<path fill="none" stroke="gray" d="M109.834,-606C109.834,-606 565.669,-606 565.669,-606 571.669,-606 577.669,-612 577.669,-618 577.669,-618 577.669,-1044 577.669,-1044 577.669,-1050 571.669,-1056 565.669,-1056 565.669,-1056 109.834,-1056 109.834,-1056 103.834,-1056 97.8345,-1050 97.8345,-1044 97.8345,-1044 97.8345,-618 97.8345,-618 97.8345,-612 103.834,-606 109.834,-606"/>
<text text-anchor="middle" x="337.752" y="-1043.2" font-family="Times,serif" font-size="11.00" fill="gray">Hundred</text>
</g>
<g id="clust4" class="cluster"><title>cluster_\Guni\Guess</title>
<path fill="none" stroke="gray" d="M462.669,-472C462.669,-472 565.669,-472 565.669,-472 571.669,-472 577.669,-478 577.669,-484 577.669,-484 577.669,-586 577.669,-586 577.669,-592 571.669,-598 565.669,-598 565.669,-598 462.669,-598 462.669,-598 456.669,-598 450.669,-592 450.669,-586 450.669,-586 450.669,-484 450.669,-484 450.669,-478 456.669,-472 462.669,-472"/>
<text text-anchor="middle" x="514.169" y="-585.2" font-family="Times,serif" font-size="11.00" fill="gray">Guess</text>
</g>
<g id="clust5" class="cluster"><title>cluster_\Anax</title>
<path fill="none" stroke="gray" d="M417.669,-106C417.669,-106 610.669,-106 610.669,-106 616.669,-106 622.669,-112 622.669,-118 622.669,-118 622.669,-444 622.669,-444 622.669,-450 616.669,-456 610.669,-456 610.669,-456 417.669,-456 417.669,-456 411.669,-456 405.669,-450 405.669,-444 405.669,-444 405.669,-118 405.669,-118 405.669,-112 411.669,-106 417.669,-106"/>
<text text-anchor="middle" x="514.169" y="-443.2" font-family="Times,serif" font-size="11.00" fill="gray">Anax</text>
</g>
<g id="clust6" class="cluster"><title>cluster_\Anax\Page</title>
<path fill="none" stroke="gray" d="M491.169,-356C491.169,-356 537.169,-356 537.169,-356 543.169,-356 549.169,-362 549.169,-368 549.169,-368 549.169,-416 549.169,-416 549.169,-422 543.169,-428 537.169,-428 537.169,-428 491.169,-428 491.169,-428 485.169,-428 479.169,-422 479.169,-416 479.169,-416 479.169,-368 479.169,-368 479.169,-362 485.169,-356 491.169,-356"/>
<text text-anchor="middle" x="514.169" y="-415.2" font-family="Times,serif" font-size="11.00" fill="gray">Page</text>
</g>
<g id="clust7" class="cluster"><title>cluster_\Anax\Controller</title>
<path fill="none" stroke="gray" d="M425.669,-114C425.669,-114 602.669,-114 602.669,-114 608.669,-114 614.669,-120 614.669,-126 614.669,-126 614.669,-336 614.669,-336 614.669,-342 608.669,-348 602.669,-348 602.669,-348 425.669,-348 425.669,-348 419.669,-348 413.669,-342 413.669,-336 413.669,-336 413.669,-126 413.669,-126 413.669,-120 419.669,-114 425.669,-114"/>
<text text-anchor="middle" x="514.169" y="-335.2" font-family="Times,serif" font-size="11.00" fill="gray">Controller</text>
</g>
<!-- \\Guni\\Hundred\\Player -->
<g id="node1" class="node"><title>\\Guni\\Hundred\\Player</title>
<polygon fill="none" stroke="black" points="542.669,-1028 485.669,-1028 485.669,-992 542.669,-992 542.669,-1028"/>
<text text-anchor="middle" x="514.169" y="-1007.2" font-family="Courier,monospace" font-size="11.00">Player</text>
</g>
<!-- \\Guni\\Hundred\\Histogram -->
<g id="node2" class="node"><title>\\Guni\\Hundred\\Histogram</title>
<polygon fill="none" stroke="black" points="552.669,-974 475.669,-974 475.669,-938 552.669,-938 552.669,-974"/>
<text text-anchor="middle" x="514.169" y="-953.2" font-family="Courier,monospace" font-size="11.00">Histogram</text>
</g>
<!-- \\Guni\\Hundred\\Hundred -->
<g id="node3" class="node"><title>\\Guni\\Hundred\\Hundred</title>
<polygon fill="none" stroke="black" points="546.169,-920 482.169,-920 482.169,-884 546.169,-884 546.169,-920"/>
<text text-anchor="middle" x="514.169" y="-899.2" font-family="Courier,monospace" font-size="11.00">Hundred</text>
</g>
<!-- \\Guni\\Hundred\\DiceHand -->
<g id="node4" class="node"><title>\\Guni\\Hundred\\DiceHand</title>
<polygon fill="none" stroke="black" points="549.669,-866 478.669,-866 478.669,-830 549.669,-830 549.669,-866"/>
<text text-anchor="middle" x="514.169" y="-845.2" font-family="Courier,monospace" font-size="11.00">DiceHand</text>
</g>
<!-- \\Guni\\Hundred\\HistogramInterface -->
<g id="node9" class="node"><title>\\Guni\\Hundred\\HistogramInterface</title>
<polygon fill="none" stroke="black" points="243.834,-852 105.834,-852 105.834,-816 243.834,-816 243.834,-852"/>
<text text-anchor="middle" x="174.834" y="-831.2" font-family="Courier,monospace" font-size="11.00">HistogramInterface</text>
</g>
<!-- \\Guni\\Hundred\\DiceHand&#45;&gt;\\Guni\\Hundred\\HistogramInterface -->
<g id="edge3" class="edge"><title>\\Guni\\Hundred\\DiceHand&#45;&gt;\\Guni\\Hundred\\HistogramInterface</title>
<path fill="none" stroke="black" stroke-dasharray="1,5" d="M478.654,-846.568C426.237,-844.392 325.179,-840.198 254.271,-837.255"/>
<polygon fill="none" stroke="black" points="254.174,-833.748 244.038,-836.831 253.884,-840.742 254.174,-833.748"/>
</g>
<!-- \\Guni\\Hundred\\DiceGraphic -->
<g id="node5" class="node"><title>\\Guni\\Hundred\\DiceGraphic</title>
<polygon fill="none" stroke="black" points="559.669,-758 468.669,-758 468.669,-722 559.669,-722 559.669,-758"/>
<text text-anchor="middle" x="514.169" y="-737.2" font-family="Courier,monospace" font-size="11.00">DiceGraphic</text>
</g>
<!-- \\Guni\\Hundred\\Dice -->
<g id="node8" class="node"><title>\\Guni\\Hundred\\Dice</title>
<polygon fill="none" stroke="black" points="201.834,-771 147.834,-771 147.834,-735 201.834,-735 201.834,-771"/>
<text text-anchor="middle" x="174.834" y="-750.2" font-family="Courier,monospace" font-size="11.00">Dice</text>
</g>
<!-- \\Guni\\Hundred\\DiceGraphic&#45;&gt;\\Guni\\Hundred\\Dice -->
<g id="edge4" class="edge"><title>\\Guni\\Hundred\\DiceGraphic&#45;&gt;\\Guni\\Hundred\\Dice</title>
<path fill="none" stroke="black" d="M468.374,-741.726C400.775,-744.331 274.013,-749.216 211.943,-751.608"/>
<polygon fill="none" stroke="black" points="211.701,-748.115 201.844,-751.998 211.971,-755.11 211.701,-748.115"/>
</g>
<!-- \\Guni\\Hundred\\DiceHistogram -->
<g id="node6" class="node"><title>\\Guni\\Hundred\\DiceHistogram</title>
<polygon fill="none" stroke="black" points="566.169,-812 462.169,-812 462.169,-776 566.169,-776 566.169,-812"/>
<text text-anchor="middle" x="514.169" y="-791.2" font-family="Courier,monospace" font-size="11.00">DiceHistogram</text>
</g>
<!-- \\Guni\\Hundred\\DiceHistogram&#45;&gt;\\Guni\\Hundred\\Dice -->
<g id="edge9" class="edge"><title>\\Guni\\Hundred\\DiceHistogram&#45;&gt;\\Guni\\Hundred\\Dice</title>
<path fill="none" stroke="black" d="M461.935,-787.773C393.081,-779.404 272.395,-764.736 212.168,-757.416"/>
<polygon fill="none" stroke="black" points="212.347,-753.912 201.998,-756.18 211.502,-760.861 212.347,-753.912"/>
</g>
<!-- \\Guni\\Hundred\\DiceHistogram&#45;&gt;\\Guni\\Hundred\\HistogramInterface -->
<g id="edge10" class="edge"><title>\\Guni\\Hundred\\DiceHistogram&#45;&gt;\\Guni\\Hundred\\HistogramInterface</title>
<path fill="none" stroke="black" stroke-dasharray="1,5" d="M461.935,-800.075C406.65,-806.631 317.948,-817.149 253.958,-824.736"/>
<polygon fill="none" stroke="black" points="253.427,-821.275 243.909,-825.928 254.251,-828.226 253.427,-821.275"/>
</g>
<!-- \\Guni\\Hundred\\Formview -->
<g id="node7" class="node"><title>\\Guni\\Hundred\\Formview</title>
<polygon fill="none" stroke="black" points="549.669,-704 478.669,-704 478.669,-668 549.669,-668 549.669,-704"/>
<text text-anchor="middle" x="514.169" y="-683.2" font-family="Courier,monospace" font-size="11.00">Formview</text>
</g>
<!-- \\Guni\\Hundred\\HistogramTrait -->
<g id="node10" class="node"><title>\\Guni\\Hundred\\HistogramTrait</title>
<polygon fill="none" stroke="black" points="569.669,-650 458.669,-650 458.669,-614 569.669,-614 569.669,-650"/>
<text text-anchor="middle" x="514.169" y="-629.2" font-family="Courier,monospace" font-size="11.00">HistogramTrait</text>
</g>
<!-- \\Guni\\Guess\\GuessException -->
<g id="node11" class="node"><title>\\Guni\\Guess\\GuessException</title>
<polygon fill="none" stroke="black" points="569.669,-570 458.669,-570 458.669,-534 569.669,-534 569.669,-570"/>
<text text-anchor="middle" x="514.169" y="-549.2" font-family="Courier,monospace" font-size="11.00">GuessException</text>
</g>
<!-- \\Exception -->
<g id="node19" class="node"><title>\\Exception</title>
<ellipse fill="none" stroke="black" cx="174.834" cy="-72" rx="48.9926" ry="18"/>
<text text-anchor="middle" x="174.834" y="-68.3" font-family="Times,serif" font-size="14.00" fill="gray">\Exception</text>
</g>
<!-- \\Guni\\Guess\\GuessException&#45;&gt;\\Exception -->
<g id="edge8" class="edge"><title>\\Guni\\Guess\\GuessException&#45;&gt;\\Exception</title>
<path fill="none" stroke="black" d="M458.541,-547.458C440.204,-543.683 420.633,-536.945 405.669,-525 261.214,-409.688 199.238,-179.55 181.514,-99.8971"/>
<polygon fill="none" stroke="black" points="184.93,-99.134 179.391,-90.1024 178.089,-100.617 184.93,-99.134"/>
</g>
<!-- \\Guni\\Guess\\Guess -->
<g id="node12" class="node"><title>\\Guni\\Guess\\Guess</title>
<polygon fill="none" stroke="black" points="541.169,-516 487.169,-516 487.169,-480 541.169,-480 541.169,-516"/>
<text text-anchor="middle" x="514.169" y="-495.2" font-family="Courier,monospace" font-size="11.00">Guess</text>
</g>
<!-- \\Anax\\Page\\Page -->
<g id="node13" class="node"><title>\\Anax\\Page\\Page</title>
<polygon fill="none" stroke="black" points="541.169,-400 487.169,-400 487.169,-364 541.169,-364 541.169,-400"/>
<text text-anchor="middle" x="514.169" y="-379.2" font-family="Courier,monospace" font-size="11.00">Page</text>
</g>
<!-- \\Anax\\Commons\\ContainerInjectableInterface -->
<g id="node18" class="node"><title>\\Anax\\Commons\\ContainerInjectableInterface</title>
<ellipse fill="none" stroke="black" cx="174.834" cy="-18" rx="174.669" ry="18"/>
<text text-anchor="middle" x="174.834" y="-14.3" font-family="Times,serif" font-size="14.00" fill="gray">\Anax\Commons\ContainerInjectableInterface</text>
</g>
<!-- \\Anax\\Page\\Page&#45;&gt;\\Anax\\Commons\\ContainerInjectableInterface -->
<g id="edge1" class="edge"><title>\\Anax\\Page\\Page&#45;&gt;\\Anax\\Commons\\ContainerInjectableInterface</title>
<path fill="none" stroke="black" stroke-dasharray="1,5" d="M487.04,-382.12C462.415,-380.744 426.302,-374.617 405.669,-352 312.195,-249.534 449.025,-141.773 349.669,-45 344.671,-40.132 339.181,-35.9179 333.326,-32.2795"/>
<polygon fill="none" stroke="black" points="334.94,-29.1719 324.503,-27.3519 331.527,-35.2835 334.94,-29.1719"/>
</g>
<!-- \\Anax\\Controller\\FlatFileContentController -->
<g id="node14" class="node"><title>\\Anax\\Controller\\FlatFileContentController</title>
<polygon fill="none" stroke="black" points="606.669,-320 421.669,-320 421.669,-284 606.669,-284 606.669,-320"/>
<text text-anchor="middle" x="514.169" y="-299.2" font-family="Courier,monospace" font-size="11.00">FlatFileContentController</text>
</g>
<!-- \\Anax\\Controller\\FlatFileContentController&#45;&gt;\\Anax\\Commons\\ContainerInjectableInterface -->
<g id="edge2" class="edge"><title>\\Anax\\Controller\\FlatFileContentController&#45;&gt;\\Anax\\Commons\\ContainerInjectableInterface</title>
<path fill="none" stroke="black" stroke-dasharray="1,5" d="M421.505,-286.92C415.715,-283.643 410.346,-279.711 405.669,-275 331.545,-200.337 427.147,-116.176 349.669,-45 344.456,-40.2106 338.761,-36.0672 332.715,-32.492"/>
<polygon fill="none" stroke="black" points="334.093,-29.2607 323.621,-27.6515 330.804,-35.4398 334.093,-29.2607"/>
</g>
<!-- \\Anax\\Controller\\DevelopmentController -->
<g id="node15" class="node"><title>\\Anax\\Controller\\DevelopmentController</title>
<polygon fill="none" stroke="black" points="593.169,-266 435.169,-266 435.169,-230 593.169,-230 593.169,-266"/>
<text text-anchor="middle" x="514.169" y="-245.2" font-family="Courier,monospace" font-size="11.00">DevelopmentController</text>
</g>
<!-- \\Anax\\Controller\\DevelopmentController&#45;&gt;\\Anax\\Commons\\ContainerInjectableInterface -->
<g id="edge5" class="edge"><title>\\Anax\\Controller\\DevelopmentController&#45;&gt;\\Anax\\Commons\\ContainerInjectableInterface</title>
<path fill="none" stroke="black" stroke-dasharray="1,5" d="M435.137,-238.557C424.284,-234.496 414.012,-228.841 405.669,-221 345.855,-164.783 412.005,-98.408 349.669,-45 344.008,-40.1502 337.847,-35.9797 331.332,-32.4031"/>
<polygon fill="none" stroke="black" points="332.755,-29.202 322.243,-27.8859 329.64,-35.4706 332.755,-29.202"/>
</g>
<!-- \\Anax\\Controller\\SampleController -->
<g id="node16" class="node"><title>\\Anax\\Controller\\SampleController</title>
<polygon fill="none" stroke="black" points="576.669,-212 451.669,-212 451.669,-176 576.669,-176 576.669,-212"/>
<text text-anchor="middle" x="514.169" y="-191.2" font-family="Courier,monospace" font-size="11.00">SampleController</text>
</g>
<!-- \\Anax\\Controller\\SampleController&#45;&gt;\\Anax\\Commons\\ContainerInjectableInterface -->
<g id="edge6" class="edge"><title>\\Anax\\Controller\\SampleController&#45;&gt;\\Anax\\Commons\\ContainerInjectableInterface</title>
<path fill="none" stroke="black" stroke-dasharray="1,5" d="M451.592,-188.291C435.276,-184.319 418.62,-177.76 405.669,-167 359.78,-128.873 397.263,-80.977 349.669,-45 343.159,-40.0792 336.115,-35.8914 328.718,-32.3373"/>
<polygon fill="none" stroke="black" points="329.739,-28.964 319.174,-28.1669 326.936,-35.3783 329.739,-28.964"/>
</g>
<!-- \\Anax\\Controller\\ErrorHandlerController -->
<g id="node17" class="node"><title>\\Anax\\Controller\\ErrorHandlerController</title>
<polygon fill="none" stroke="black" points="596.669,-158 431.669,-158 431.669,-122 596.669,-122 596.669,-158"/>
<text text-anchor="middle" x="514.169" y="-137.2" font-family="Courier,monospace" font-size="11.00">ErrorHandlerController</text>
</g>
<!-- \\Anax\\Controller\\ErrorHandlerController&#45;&gt;\\Anax\\Commons\\ContainerInjectableInterface -->
<g id="edge7" class="edge"><title>\\Anax\\Controller\\ErrorHandlerController&#45;&gt;\\Anax\\Commons\\ContainerInjectableInterface</title>
<path fill="none" stroke="black" stroke-dasharray="1,5" d="M488.836,-121.923C458.085,-100.039 402.744,-63.7879 349.669,-45 336.218,-40.2386 321.887,-36.3158 307.446,-33.0842"/>
<polygon fill="none" stroke="black" points="307.949,-29.6129 297.439,-30.9555 306.492,-36.4597 307.949,-29.6129"/>
</g>
</g>
</svg>
